<svg version="1.2" xmlns="http://www.w3.org/2000/svg" viewBox="0 0 800 800" width="800" height="800">
	<style>
		.s0 { fill: #ffca28 } 
		.s1 { fill: #3e3e3e } 
	</style>
	<path fill-rule="evenodd" class="s0" d="m800 0v800h-800v-800z"/>
	<path class="s1" d="m475 632.2l51.54-34.11c4.04 12.69 29.62 42.83 61.92 42.83 32.31 0 47.31-17.65 47.31-29.34 0-31.89-32.99-43.13-48.84-48.52-2.58-0.88-4.7-1.61-6.16-2.24q-1.14-0.48-3.32-1.31c-17.62-6.73-82.64-31.57-82.64-103.58 0-79.31 76.54-88.43 93.84-88.43 11.33 0 65.77 1.39 92.89 52.35l-50 34.9c-10.96-22.21-29.17-29.55-40.39-29.55-27.69 0-33.46 20.3-33.46 29.55 0 25.92 30.09 37.55 55.49 47.36 6.65 2.57 12.97 5.01 18.36 7.55 27.69 13.09 68.46 34.5 68.46 101.92 0 33.76-28.32 88.42-99.62 88.42-95.76 0-121.15-57.49-125.38-67.8z"/>
	<path class="s1" d="m225 638.97l53.72-34.09c4.21 12.69 20.56 36.07 44.29 36.07 23.74 0 35.88-24.37 35.88-36.07v-229.88h66.07v229.88c1.07 31.71-16.52 95.12-94.13 95.12-71.36 0-101.02-42.4-105.83-61.03z"/>
</svg>